<svg width="29" height="28" viewBox="0 0 29 28" fill="none" xmlns="http://www.w3.org/2000/svg">
<g clip-path="url(#clip0_41_6184)">
<g clip-path="url(#clip1_41_6184)">
<path d="M16.8799 25.2806C16.6523 25.342 16.42 25.3967 16.1896 25.4441C15.5865 25.5669 15.1974 26.1554 15.3206 26.7585C15.3275 26.7929 15.3361 26.8257 15.3459 26.8586C15.5105 27.4037 16.0664 27.7438 16.6353 27.6277C16.9104 27.5714 17.1876 27.5058 17.4594 27.4327C18.0539 27.2728 18.4059 26.6612 18.246 26.0668C18.0858 25.4716 17.4744 25.1205 16.8799 25.2806Z" fill="#2B2A4A"/>
<path d="M9.11231 24.6599C8.89709 24.5641 8.68237 24.4604 8.47406 24.3514C7.92818 24.0668 7.25523 24.2784 6.97057 24.8242C6.83006 25.0926 6.81033 25.3922 6.89152 25.661C6.97535 25.9382 7.16606 26.183 7.44274 26.3274C7.6914 26.4569 7.94696 26.5808 8.20335 26.6951C8.76519 26.9459 9.42431 26.6941 9.67535 26.1323C9.92639 25.57 9.67422 24.9113 9.11231 24.6599Z" fill="#2B2A4A"/>
<path d="M12.9444 25.6398C12.71 25.621 12.4722 25.5944 12.2389 25.5616C11.6294 25.4748 11.0655 25.8989 10.9789 26.5083C10.9554 26.6739 10.9698 26.8359 11.015 26.986C11.1365 27.3885 11.4821 27.7049 11.9259 27.7683C12.2036 27.8075 12.4863 27.839 12.7656 27.8612C13.3793 27.9109 13.9166 27.4536 13.966 26.8403C14.0153 26.2266 13.5582 25.6892 12.9444 25.6398Z" fill="#2B2A4A"/>
<path d="M20.4698 23.6184C20.2762 23.7516 20.0753 23.881 19.8732 24.003C19.4277 24.2714 19.2376 24.8023 19.381 25.2783C19.4074 25.3655 19.4451 25.4509 19.4942 25.5328C19.8117 26.06 20.4967 26.2293 21.0239 25.9119C21.2643 25.767 21.503 25.6127 21.7332 25.4545C22.2401 25.1055 22.3685 24.4116 22.0195 23.9048C21.6707 23.3975 20.9766 23.2695 20.4698 23.6184Z" fill="#2B2A4A"/>
<path d="M24.8512 20.6044C24.352 20.2444 23.6555 20.3573 23.2955 20.8562C23.158 21.0471 23.0125 21.2364 22.8635 21.4181C22.6191 21.7165 22.5556 22.1035 22.659 22.447C22.7209 22.6515 22.8419 22.841 23.0194 22.9865C23.4955 23.3764 24.1976 23.3064 24.5876 22.8302C24.7655 22.6134 24.9391 22.3877 25.103 22.1601C25.463 21.6609 25.3504 20.9646 24.8512 20.6044Z" fill="#2B2A4A"/>
<path d="M26.4097 16.5452C25.8191 16.3727 25.2003 16.712 25.028 17.3028C24.9617 17.5291 24.888 17.7563 24.809 17.978C24.7252 18.2114 24.7239 18.4547 24.7906 18.675C24.8892 19.002 25.1359 19.2792 25.4815 19.403C26.061 19.6108 26.6987 19.3098 26.9069 18.7306C27.0014 18.4664 27.0892 18.196 27.1674 17.9268C27.3396 17.3363 27.0004 16.7172 26.4097 16.5452Z" fill="#2B2A4A"/>
<path d="M28.5008 9.2844L27.0362 9.73948C25.9247 6.33336 23.5844 3.53438 20.4169 1.83446C20.098 1.66322 19.7746 1.50588 19.4472 1.36128C19.4448 1.36015 19.443 1.35921 19.4408 1.35776C19.4271 1.35198 19.4127 1.34658 19.3993 1.34067C16.5114 0.0770423 13.3156 -0.1625 10.2522 0.667101C10.2281 0.671814 10.204 0.676338 10.1803 0.683062C10.078 0.710962 9.97475 0.741188 9.87288 0.771602C9.70567 0.822124 9.53745 0.876543 9.37243 0.933161C9.35289 0.939885 9.33448 0.948242 9.3155 0.955783C6.58088 1.90308 4.25212 3.64963 2.59079 5.98322C2.58488 5.99126 2.57822 5.99817 2.57263 6.00615C2.41025 6.2342 2.25296 6.47066 2.10441 6.7092C2.09511 6.72447 2.08738 6.74037 2.07852 6.75614C1.93035 6.99643 1.78796 7.24226 1.6531 7.49299C0.276174 10.0591 -0.249097 12.9262 0.109274 15.7584C0.110091 15.7649 0.110845 15.7709 0.111411 15.7773C0.111976 15.7818 0.112982 15.7865 0.11405 15.7913C0.21145 16.5478 0.371439 17.302 0.596088 18.0469C1.18602 20.0027 2.17039 21.7614 3.52168 23.2743C3.93158 23.7332 4.63613 23.7728 5.09524 23.3629C5.55409 22.9528 5.59411 22.2481 5.1839 21.7894C4.50932 21.0345 3.94478 20.2053 3.4929 19.312C3.48806 19.301 3.48379 19.2898 3.47851 19.2792C3.37225 19.0684 3.27127 18.8524 3.17777 18.6362L3.17594 18.6321C3.00578 18.2341 2.85741 17.8244 2.73023 17.4034C1.26966 12.5606 3.13233 7.49318 6.99775 4.65989C7.05493 4.61829 7.11205 4.57632 7.1698 4.53597C8.16216 3.83607 9.28144 3.28108 10.5064 2.91171C11.7392 2.54008 12.9859 2.38399 14.2068 2.42056C14.2266 2.42144 14.2457 2.42201 14.2653 2.42257C14.3398 2.42483 14.4141 2.42879 14.4882 2.43294C14.5182 2.43451 14.548 2.43614 14.578 2.43803C18.3852 2.67619 21.8959 4.79072 23.8668 8.11271C23.8679 8.11459 23.8686 8.11673 23.87 8.11861C23.8992 8.16794 23.9277 8.21721 23.9564 8.2671C23.9598 8.27269 23.9635 8.27766 23.9667 8.28338C24.3438 8.94463 24.6611 9.65226 24.9079 10.4011L23.4433 10.8564C23.0366 10.9828 22.9966 11.2755 23.3535 11.5068L26.5407 13.5712C26.898 13.8028 27.3242 13.6702 27.4871 13.2774L28.9431 9.76971C29.1059 9.37659 28.9072 9.1581 28.5008 9.2844Z" fill="#2B2A4A"/>
<path d="M9.75941 14.0535C8.68536 14.8492 7.95278 15.5394 7.5623 16.1241C7.1722 16.7087 6.93819 17.3328 6.86133 17.9964H13.581V16.1708H10.0835C10.2889 15.9689 10.4676 15.806 10.6197 15.6816C10.772 15.5565 11.0733 15.3387 11.5243 15.0269C12.283 14.4917 12.8065 14.0004 13.0943 13.553C13.382 13.106 13.5259 12.6367 13.5259 12.1454C13.5259 11.6836 13.4004 11.2665 13.1493 10.8942C12.898 10.5222 12.5532 10.2463 12.1153 10.0666C11.6773 9.88717 11.0641 9.79712 10.2758 9.79712C9.52087 9.79712 8.92987 9.89169 8.50256 10.0808C8.07576 10.2696 7.74466 10.5407 7.51021 10.8942C7.27551 11.2483 7.11439 11.7404 7.02622 12.3707L9.26983 12.5521C9.3321 12.0979 9.45413 11.7806 9.63542 11.6011C9.81709 11.4214 10.0504 11.3315 10.3367 11.3315C10.6115 11.3315 10.8398 11.4187 11.0212 11.5929C11.2025 11.7667 11.2934 11.9768 11.2934 12.2225C11.2934 12.45 11.2018 12.6899 11.0183 12.9431C10.835 13.1959 10.4153 13.5663 9.75941 14.0535Z" fill="#F4472F"/>
<path d="M20.3388 17.9964V16.4896H21.3505V14.7516H20.3388V9.79712H18.3867L14.3066 14.6475V16.4896H18.3867V17.9964H20.3388ZM16.231 14.7516L18.3867 12.2151V14.7516H16.231Z" fill="#F4472F"/>
</g>
</g>
<defs>
<clipPath id="clip0_41_6184">
<rect width="29" height="28" fill="white"/>
</clipPath>
<clipPath id="clip1_41_6184">
<rect width="29" height="28" fill="white"/>
</clipPath>
</defs>
</svg>
