<svg width="18" height="18" viewBox="0 0 18 18" fill="none" xmlns="http://www.w3.org/2000/svg">
<g clip-path="url(#clip0_41_6288)">
<g clip-path="url(#clip1_41_6288)">
<g clip-path="url(#clip2_41_6288)">
<path d="M11.5909 0.0504387L5.4838 0.0696685C2.6735 0.0785174 0.401707 2.36466 0.410556 5.17496L0.429786 11.282C0.438635 14.0923 2.72478 16.3641 5.53508 16.3553L11.6422 16.3361C14.4524 16.3272 16.7243 14.041 16.7154 11.2308L16.6962 5.12368C16.6873 2.31338 14.4012 0.0415898 11.5909 0.0504387ZM15.1886 11.2356C15.1948 13.2001 13.6018 14.8031 11.6373 14.8093L5.53027 14.8285C3.56581 14.8347 1.96275 13.2417 1.95657 11.2772L1.93734 5.17015C1.93115 3.20569 3.52414 1.60264 5.4886 1.59645L11.5957 1.57722C13.5602 1.57104 15.1632 3.16403 15.1694 5.12849L15.1886 11.2356Z" fill="url(#paint0_linear_41_6288)"/>
<path d="M8.56264 4.13135C6.31419 4.13135 4.49121 5.95433 4.49121 8.20278C4.49121 10.4512 6.31419 12.2742 8.56264 12.2742C10.8111 12.2742 12.634 10.4512 12.634 8.20278C12.634 5.95433 10.8111 4.13135 8.56264 4.13135ZM8.56264 10.7474C7.16003 10.7474 6.01799 9.60539 6.01799 8.20278C6.01799 6.79915 7.16003 5.65814 8.56264 5.65814C9.96525 5.65814 11.1073 6.79915 11.1073 8.20278C11.1073 9.60539 9.96525 10.7474 8.56264 10.7474Z" fill="url(#paint1_linear_41_6288)"/>
<path d="M12.94 4.36873C13.2396 4.36873 13.4825 4.12583 13.4825 3.82621C13.4825 3.52659 13.2396 3.28369 12.94 3.28369C12.6403 3.28369 12.3975 3.52659 12.3975 3.82621C12.3975 4.12583 12.6403 4.36873 12.94 4.36873Z" fill="url(#paint2_linear_41_6288)"/>
</g>
</g>
</g>
<defs>
<linearGradient id="paint0_linear_41_6288" x1="1.93191" y1="14.8759" x2="15.1941" y2="1.5298" gradientUnits="userSpaceOnUse">
<stop stop-color="#FFC107"/>
<stop offset="0.507" stop-color="#F44336"/>
<stop offset="0.99" stop-color="#9C27B0"/>
</linearGradient>
<linearGradient id="paint1_linear_41_6288" x1="5.68378" y1="11.0816" x2="11.4415" y2="5.32392" gradientUnits="userSpaceOnUse">
<stop stop-color="#FFC107"/>
<stop offset="0.507" stop-color="#F44336"/>
<stop offset="0.99" stop-color="#9C27B0"/>
</linearGradient>
<linearGradient id="paint2_linear_41_6288" x1="12.5564" y1="4.20989" x2="13.3235" y2="3.44263" gradientUnits="userSpaceOnUse">
<stop stop-color="#FFC107"/>
<stop offset="0.507" stop-color="#F44336"/>
<stop offset="0.99" stop-color="#9C27B0"/>
</linearGradient>
<clipPath id="clip0_41_6288">
<rect width="17" height="17" fill="white" transform="translate(0.419922 0.0600586)"/>
</clipPath>
<clipPath id="clip1_41_6288">
<rect width="17" height="17" fill="white" transform="translate(0.419922 0.0600586)"/>
</clipPath>
<clipPath id="clip2_41_6288">
<rect width="17" height="17" fill="white" transform="translate(0.419922 0.0600586)"/>
</clipPath>
</defs>
</svg>
