<svg width="18" height="18" viewBox="0 0 18 18" fill="none" xmlns="http://www.w3.org/2000/svg">
<g clip-path="url(#clip0_41_6294)">
<g clip-path="url(#clip1_41_6294)">
<g clip-path="url(#clip2_41_6294)">
<path d="M1.21149 8.44405L16.2877 2.6312C16.9875 2.37841 17.5986 2.8019 17.3718 3.85993L17.3732 3.85868L14.8062 15.9522C14.6159 16.8097 14.1064 17.0181 13.3937 16.6142L9.48456 13.7332L7.59899 15.5497C7.39051 15.7581 7.21465 15.934 6.8107 15.934L7.0882 11.9558L14.3331 5.41055C14.6485 5.13306 14.2628 4.97669 13.8471 5.25294L4.89387 10.8899L1.03427 9.6859C0.196415 9.42008 0.178172 8.84799 1.21149 8.44405Z" fill="#7FDDFF"/>
</g>
</g>
</g>
<defs>
<clipPath id="clip0_41_6294">
<rect width="17" height="15" fill="white" transform="translate(0.419922 2.56006)"/>
</clipPath>
<clipPath id="clip1_41_6294">
<rect width="17" height="15" fill="white" transform="translate(0.419922 2.56006)"/>
</clipPath>
<clipPath id="clip2_41_6294">
<rect width="17" height="15" fill="white" transform="translate(0.419922 2.56006)"/>
</clipPath>
</defs>
</svg>
