<svg width="22" height="13" viewBox="0 0 22 13" fill="none" xmlns="http://www.w3.org/2000/svg">
<g clip-path="url(#clip0_41_6277)">
<g clip-path="url(#clip1_41_6277)">
<g clip-path="url(#clip2_41_6277)">
<path fill-rule="evenodd" clip-rule="evenodd" d="M10.4847 11.7678H11.7143C11.7143 11.7678 12.0858 11.7291 12.2754 11.535C12.4499 11.3568 12.4443 11.0222 12.4443 11.0222C12.4443 11.0222 12.4203 9.45561 13.1861 9.22491C13.941 8.99767 14.9103 10.739 15.9377 11.4085C16.7147 11.9152 17.3051 11.8041 17.3051 11.8041L20.0522 11.7678C20.0522 11.7678 21.4894 11.6838 20.808 10.6109C20.7521 10.5231 20.4111 9.81729 18.7654 8.36684C17.0428 6.84878 17.2735 7.09432 19.3485 4.4684C20.6122 2.86919 21.1174 1.89286 20.9596 1.47469C20.8091 1.07642 19.8797 1.18169 19.8797 1.18169L16.7864 1.19998C16.7864 1.19998 16.5572 1.17029 16.3871 1.2668C16.2209 1.36147 16.114 1.58209 16.114 1.58209C16.114 1.58209 15.6244 2.81961 14.9715 3.87204C13.5941 6.09279 13.0434 6.21 12.8183 6.07211C12.2946 5.75073 12.4253 4.78103 12.4253 4.09213C12.4253 1.94006 12.7691 1.04274 11.7559 0.810458C11.4197 0.733295 11.1723 0.682384 10.3124 0.674164C9.20872 0.663292 8.27456 0.677345 7.74562 0.923418C7.39374 1.08702 7.12228 1.45162 7.28761 1.47257C7.49204 1.49856 7.95507 1.5911 8.20055 1.9085C8.51752 2.31792 8.50635 3.23751 8.50635 3.23751C8.50635 3.23751 8.68844 5.77088 8.08102 6.08563C7.66407 6.30148 7.09212 5.86077 5.86417 3.84606C5.23497 2.81404 4.75993 1.6733 4.75993 1.6733C4.75993 1.6733 4.66833 1.46011 4.50495 1.34609C4.30667 1.20794 4.02963 1.16392 4.02963 1.16392L1.0903 1.18222C1.0903 1.18222 0.649055 1.19389 0.487078 1.37605C0.342974 1.53807 0.475627 1.87324 0.475627 1.87324C0.475627 1.87324 2.77682 6.98507 5.38242 9.56114C7.77159 11.9229 10.4847 11.7678 10.4847 11.7678Z" fill="#3E85D8"/>
</g>
</g>
</g>
<defs>
<clipPath id="clip0_41_6277">
<rect width="21" height="12" fill="white" transform="translate(0.419922 0.100098)"/>
</clipPath>
<clipPath id="clip1_41_6277">
<rect width="21" height="12" fill="white" transform="translate(0.419922 0.100098)"/>
</clipPath>
<clipPath id="clip2_41_6277">
<rect width="21" height="12" fill="white" transform="translate(0.419922 0.100098)"/>
</clipPath>
</defs>
</svg>
