<svg width="21" height="16" viewBox="0 0 21 16" fill="none" xmlns="http://www.w3.org/2000/svg">
<g clip-path="url(#clip0_41_6282)">
<g clip-path="url(#clip1_41_6282)">
<g clip-path="url(#clip2_41_6282)">
<path d="M19.728 3.56318C19.5007 2.72408 18.8349 2.06266 17.9905 1.83671C16.4478 1.41724 10.2769 1.41724 10.2769 1.41724C10.2769 1.41724 4.10611 1.41724 2.56338 1.82072C1.73523 2.04652 1.05314 2.72423 0.825872 3.56318C0.419922 5.09582 0.419922 8.27438 0.419922 8.27438C0.419922 8.27438 0.419922 11.469 0.825872 12.9856C1.05329 13.8246 1.71899 14.4861 2.56353 14.7121C4.12235 15.1316 10.277 15.1316 10.277 15.1316C10.277 15.1316 16.4478 15.1316 17.9905 14.7281C18.835 14.5023 19.5007 13.8407 19.7282 13.0018C20.1341 11.469 20.1341 8.29052 20.1341 8.29052C20.1341 8.29052 20.1503 5.09582 19.728 3.56318Z" fill="#E94D4D"/>
<path d="M8.13477 11.7029L14.1348 8.27428L8.13477 4.8457V11.7029Z" fill="white"/>
</g>
</g>
</g>
<defs>
<clipPath id="clip0_41_6282">
<rect width="20" height="15" fill="white" transform="translate(0.419922 0.560059)"/>
</clipPath>
<clipPath id="clip1_41_6282">
<rect width="20" height="15" fill="white" transform="translate(0.419922 0.560059)"/>
</clipPath>
<clipPath id="clip2_41_6282">
<rect width="20" height="15" fill="white" transform="translate(0.419922 0.560059)"/>
</clipPath>
</defs>
</svg>
